<svg xmlns="http://www.w3.org/2000/svg" viewBox="0 0 99.43 98.37"><defs><style>.cls-1{fill:#51a97f;}</style></defs><g id="Layer_2" data-name="Layer 2"><g id="Layer_1-2" data-name="Layer 1"><path class="cls-1" d="M21.83,19.8A21.83,21.83,0,1,0,43.66,41.63,21.83,21.83,0,0,0,21.83,19.8ZM6.2,46.93A1.91,1.91,0,1,1,8.11,45,1.92,1.92,0,0,1,6.2,46.93Zm18.05,1.43-9.67,2c-.42.09-.8-.41-.7-1a6.06,6.06,0,0,1,5.81-5.24,5.82,5.82,0,0,1,5,2.91A.89.89,0,0,1,24.25,48.36Zm6.56-6.73a1.91,1.91,0,1,1,1.92-1.91A1.91,1.91,0,0,1,30.81,41.63Z"/><path class="cls-1" d="M65,0A27.46,27.46,0,0,0,37.79,23.82a23.86,23.86,0,0,1,8,17.81,24.58,24.58,0,0,1-.5,4.89,27.43,27.43,0,0,0,26.49,7.56A15,15,0,0,1,86.31,35.27a15.1,15.1,0,0,1,4.77.79A27.46,27.46,0,0,0,65,0ZM57.53,19.8a2.18,2.18,0,1,1,2.18-2.18A2.18,2.18,0,0,1,57.53,19.8ZM80.55,30l0,0a1.22,1.22,0,0,1-1.88.13c-1.65-1.77-2.65-3.25-4.71-4-3.21-1.22-5.88-1-9.27-.52a1.23,1.23,0,0,1-1.38-1.21,2.62,2.62,0,0,1,0-.28A1.21,1.21,0,0,1,64.49,23c3.43-.12,7.28-.74,10.58.51,2.2.83,3.9,3,5.46,5.08A1.23,1.23,0,0,1,80.55,30Zm6.18-1.5a1.88,1.88,0,1,1,1.87-1.87A1.88,1.88,0,0,1,86.73,28.51Z"/><path class="cls-1" d="M86.31,37.2A13.13,13.13,0,1,0,99.43,50.33,13.13,13.13,0,0,0,86.31,37.2Zm-2.1,12a1.35,1.35,0,1,1,1.35-1.35A1.34,1.34,0,0,1,84.21,49.21Zm5.55,8.25a2.7,2.7,0,1,1,2.7-2.69A2.7,2.7,0,0,1,89.76,57.46Zm7.06-4.05a1.35,1.35,0,1,1,1.35-1.35A1.35,1.35,0,0,1,96.82,53.41Z"/><path class="cls-1" d="M40.81,55.32a28.54,28.54,0,0,1-2.33,2.84S47.19,65,49,71.77s1.69,23.1,1.53,26.16a.41.41,0,0,0,.4.44H54a.38.38,0,0,0,.39-.36c.06-2.91-.28-22.16-2.14-27.73A31,31,0,0,0,40.81,55.32Z"/><path class="cls-1" d="M58.29,46.83s.73-2.24,2.28-1.7a1.92,1.92,0,0,1,1.08,2.77,58.7,58.7,0,0,0-3.47,10.93c-.8,4.46-2.88,23.6-2.88,23.6-.34-5.37-.72-9.9-1.72-12.34,0,0,.73-7.76,1.57-12.63A56.45,56.45,0,0,1,58.29,46.83Z"/><path class="cls-1" d="M72.47,55.32a6.76,6.76,0,0,0,1,2.14,13.17,13.17,0,0,0-7.2,3C60.87,65.16,56.13,75,56.13,75l-.53-4.61s5.27-9.5,9.06-11.84C67.19,57,69.18,55.76,72.47,55.32Z"/></g></g></svg>